<mxfile host="app.diagrams.net" modified="2024-05-31T02:39:18.917Z" agent="Mozilla/5.0 (Windows NT 10.0; Win64; x64) AppleWebKit/537.36 (KHTML, like Gecko) Chrome/125.0.0.0 Safari/537.36" version="24.0.6" etag="fBlunwxFMGlO0EH_QDIa" type="github">
  <diagram name="Page-1" id="lfs_iFCe6kTkTglvgllQ">
    <mxGraphModel>
      <root>
        <mxCell id="0" />
        <mxCell id="1" parent="0" />
      </root>
    </mxGraphModel>
  </diagram>
</mxfile>
